<svg width="19" height="19" viewBox="0 0 19 19" xmlns="http://www.w3.org/2000/svg">
<path d="M16.9733 8.74789L9.69786 16.0233C8.80657 16.9146 7.59772 17.4153 6.33724 17.4153C5.07676 17.4153 3.8679 16.9146 2.97661 16.0233C2.08532 15.132 1.58459 13.9232 1.58459 12.6627C1.58459 11.4022 2.08532 10.1934 2.97661 9.30206L10.252 2.02664C10.8462 1.43245 11.6521 1.09863 12.4924 1.09863C13.3328 1.09863 14.1387 1.43245 14.7329 2.02664C15.3271 2.62084 15.6609 3.42674 15.6609 4.26706C15.6609 5.10738 15.3271 5.91328 14.7329 6.50748L7.44953 13.7829C7.15243 14.08 6.74948 14.2469 6.32932 14.2469C5.90916 14.2469 5.50621 14.08 5.20911 13.7829C4.91201 13.4858 4.74511 13.0828 4.74511 12.6627C4.74511 12.2425 4.91201 11.8396 5.20911 11.5425L11.9304 4.82914" stroke="currentColor" stroke-width="2" stroke-linecap="round" stroke-linejoin="round" fill="none"/>
</svg>
