<svg width="40" height="38" viewBox="0 0 40 38" fill="none" xmlns="http://www.w3.org/2000/svg">
<g clip-path="url(#clip0_125_831)">
<path d="M40 35C40 31.2056 36.6727 28 32.7344 28C30.7657 28 28.8025 28.8136 27.4652 30.1328C25.705 27.8299 22.9907 26.4444 20 26.4444C17.1359 26.4444 14.3607 27.7454 12.5351 30.1328C11.1975 28.8139 9.23462 28 7.26562 28C3.32733 28 0 31.2056 0 35V36.5556C0 36.9852 0.349731 37.3333 0.78125 37.3333H39.2188C39.6503 37.3333 40 36.9852 40 36.5556V35ZM2.57812 23.3333C2.57812 25.9067 4.68079 28 7.26562 28C9.85046 28 11.9531 25.9067 11.9531 23.3333C11.9531 20.76 9.85046 18.6667 7.26562 18.6667C4.68079 18.6667 2.57812 20.76 2.57812 23.3333ZM20 28C24.3472 28 27.8125 31.5115 27.8125 35.3333H12.1875C12.1875 31.4547 15.7236 28 20 28ZM20 14C16.5536 14 13.75 16.7912 13.75 20.2222C13.75 23.6533 16.5536 26.4444 20 26.4444C23.4464 26.4444 26.25 23.6533 26.25 20.2222C26.25 16.7912 23.4464 14 20 14ZM19.9719 10.2734L22.9883 11.8517C23.2513 11.9896 23.5703 11.9665 23.811 11.7924C24.0515 11.6184 24.1721 11.3237 24.1217 11.0317L23.5452 7.68845L25.9851 5.32079C26.1981 5.11419 26.2747 4.80521 26.1829 4.52357C26.091 4.24193 25.8466 4.03685 25.5521 3.99431L22.1823 3.50729L20.6735 0.436285C20.5426 0.169227 20.2704 0 19.9719 0C19.6735 0 19.4012 0.169227 19.27 0.435981L17.7615 3.50729L14.3918 3.99401C14.0973 4.03654 13.8528 4.24193 13.761 4.52357C13.6691 4.80521 13.7457 5.11419 13.9587 5.32079L16.3989 7.68845L15.8231 11.032C15.7727 11.3237 15.8933 11.6187 16.134 11.7924C16.3733 11.9656 16.6919 11.9902 16.9568 11.8517L19.9719 10.2734ZM9.52728 15.778C9.76776 15.6042 9.88831 15.3092 9.83795 15.0175L9.44794 12.754L11.1002 11.1502C11.3132 10.9436 11.3895 10.6346 11.2976 10.353C11.2057 10.0713 10.9613 9.86623 10.6668 9.8237L8.38379 9.49345L7.36298 7.43355C7.23145 7.16801 6.96014 7 6.6626 7C6.36505 7 6.09344 7.16801 5.96191 7.43355L4.94049 9.49345L2.65717 9.8237C2.36298 9.86623 2.11853 10.0713 2.02667 10.353C1.93451 10.6346 2.01111 10.9436 2.22412 11.1502L3.87604 12.754L3.48633 15.0175C3.43597 15.3092 3.55652 15.6039 3.797 15.778C4.03748 15.952 4.35638 15.9751 4.61975 15.8375L6.66229 14.769L8.70453 15.8375C8.96942 15.976 9.28802 15.9511 9.52728 15.778ZM35.267 15.8375C35.5301 15.9751 35.8493 15.952 36.0898 15.778C36.3303 15.6042 36.4505 15.3092 36.4005 15.0175L36.0104 12.754L37.6627 11.1502C37.8757 10.9436 37.952 10.6346 37.8601 10.353C37.7682 10.0713 37.5238 9.86623 37.2293 9.8237L34.9463 9.49345L33.9255 7.43355C33.7939 7.16801 33.5226 7 33.2251 7C32.9279 7 32.6559 7.16801 32.5244 7.43355L31.503 9.49345L29.2197 9.8237C28.9255 9.86623 28.681 10.0713 28.5892 10.353C28.497 10.6346 28.5736 10.9436 28.7866 11.1502L30.4385 12.754L30.0485 15.0175C29.9985 15.3092 30.1187 15.6039 30.3595 15.778C30.6 15.952 30.9189 15.9751 31.1819 15.8375L33.2248 14.769L35.267 15.8375ZM28.0469 23.3333C28.0469 25.9067 30.1495 28 32.7344 28C35.3192 28 37.4219 25.9067 37.4219 23.3333C37.4219 20.76 35.3192 18.6667 32.7344 18.6667C30.1495 18.6667 28.0469 20.76 28.0469 23.3333ZM18.3942 4.9875C18.6499 4.95074 18.8705 4.79032 18.9838 4.55942L19.9719 2.54813L20.9598 4.55942C21.0733 4.79062 21.2939 4.95074 21.5494 4.9875L23.7607 5.30712L22.16 6.85994C21.976 7.03858 21.8918 7.29622 21.9354 7.54839L22.3135 9.74167L20.3354 8.70625C20.1077 8.58715 19.8358 8.58715 19.6082 8.70625L17.6306 9.74167L18.0084 7.54839C18.0518 7.29592 17.9675 7.03858 17.7835 6.85994L16.1832 5.30712L18.3942 4.9875ZM29.375 35.3333C29.375 34.2799 29.0134 32.8082 28.3267 31.4878C29.3652 30.3017 31.0428 29.5556 32.7344 29.5556C35.8258 29.5556 38.4375 32.0487 38.4375 35V35.3333H29.375ZM6.66199 9.53568L7.164 10.5486C7.27783 10.7783 7.49786 10.9375 7.75238 10.9743L8.87573 11.1365L8.06305 11.9258C7.87903 12.1045 7.79511 12.3618 7.83844 12.614L8.0304 13.7272L7.02576 13.2019C6.7984 13.0828 6.52649 13.0828 6.29913 13.2019L5.29358 13.7275L5.48553 12.614C5.52917 12.3618 5.44495 12.1045 5.26093 11.9258L4.44794 11.1365L5.57159 10.9743C5.82581 10.9375 6.04584 10.7783 6.15967 10.5489L6.66199 9.53568ZM32.7344 20.2222C34.4574 20.2222 35.8594 21.618 35.8594 23.3333C35.8594 25.0487 34.4574 26.4444 32.7344 26.4444C31.0114 26.4444 29.6094 25.0487 29.6094 23.3333C29.6094 21.618 31.0114 20.2222 32.7344 20.2222ZM15.3125 20.2222C15.3125 17.6489 17.4152 15.5556 20 15.5556C22.5848 15.5556 24.6875 17.6489 24.6875 20.2222C24.6875 22.7956 22.5848 24.8889 20 24.8889C17.4152 24.8889 15.3125 22.7956 15.3125 20.2222ZM7.26562 26.4444C5.5426 26.4444 4.14062 25.0487 4.14062 23.3333C4.14062 21.618 5.5426 20.2222 7.26562 20.2222C8.98865 20.2222 10.3906 21.618 10.3906 23.3333C10.3906 25.0487 8.98865 26.4444 7.26562 26.4444ZM32.7225 10.5489L33.2248 9.53568L33.7268 10.5486C33.8406 10.7783 34.0607 10.9375 34.3152 10.9743L35.4385 11.1365L34.6259 11.9258C34.4415 12.1045 34.3576 12.3618 34.4012 12.614L34.5929 13.7272L33.5886 13.2019C33.3609 13.0828 33.089 13.0828 32.8616 13.2019L31.8564 13.7275L32.0483 12.614C32.0917 12.3618 32.0078 12.1045 31.8237 11.9258L31.0107 11.1365L32.1341 10.9743C32.3886 10.9375 32.6086 10.7783 32.7225 10.5489ZM7.26562 29.5556C8.95721 29.5556 10.6348 30.3017 11.6733 31.4878C10.9866 32.8082 10.625 34.2799 10.625 35.3333H1.5625V35C1.5625 32.0487 4.17419 29.5556 7.26562 29.5556ZM20.7812 30.3333C20.7812 29.9037 20.4315 29.5556 20 29.5556C19.5685 29.5556 19.2188 29.9037 19.2188 30.3333C19.2188 30.7629 19.5685 31.1111 20 31.1111C20.4315 31.1111 20.7812 30.7629 20.7812 30.3333ZM24.2352 33.7786C24.4202 34.166 24.8859 34.3316 25.2762 34.1466C25.6659 33.9622 25.8313 33.4979 25.6461 33.1102C25.1535 32.0797 24.3848 31.2026 23.4235 30.574C23.0627 30.3379 22.5784 30.4378 22.3416 30.797C22.1045 31.1558 22.2049 31.6379 22.5656 31.874C23.288 32.3464 23.8654 33.0051 24.2352 33.7786Z" fill="white"/>
</g>
<defs>
<clipPath id="clip0_125_831">
<rect width="40" height="37.3333" fill="white"/>
</clipPath>
</defs>
</svg>
