<svg width="40" height="40" viewBox="0 0 40 40" fill="none" xmlns="http://www.w3.org/2000/svg">
<g clip-path="url(#clip0_125_842)">
<path d="M20 9.375C20.3452 9.375 20.625 9.09518 20.625 8.75V6.25H22.5C22.8452 6.25 23.125 5.97018 23.125 5.625V0.625C23.125 0.279822 22.8452 0 22.5 0H17.5C17.1548 0 16.875 0.279822 16.875 0.625V5.625C16.875 5.97018 17.1548 6.25 17.5 6.25H19.375V8.75C19.375 9.09518 19.6548 9.375 20 9.375ZM9.33333 0.625C8.75 0.279822 8.47018 0 8.125 0H0.625C0.279822 0 0 0.279822 0 0.625V8.125C0 8.47018 0.279822 8.75 0.625 9.33333H7.86625L12.0581 12.9419C12.1746 13.0544 12.3303 13.1173 12.4923 13.1173C12.8375 13.1173 13.1173 12.8375 13.1173 12.4923C13.1173 12.3303 13.0544 12.1746 12.9419 12.0581L9.33333 7.86625V0.625ZM31.875 40H39.375C39.7202 40 40 39.7202 40 39.375V31.875C40 31.5298 39.7202 31.25 39.375 30.6667H32.1338L27.9419 27.0581C27.8253 26.9456 27.6697 26.8827 27.5077 26.8827C27.1625 26.8827 26.8827 27.1625 26.8827 27.5077C26.8827 27.6697 26.9456 27.8253 27.0581 27.9419L30.6667 32.1338V39.375C31.25 39.7202 31.5298 40 31.875 40ZM30 20.625H33.75V22.5C33.75 22.8452 34.0298 23.125 34.375 23.125H39.375C39.7202 23.125 40 22.8452 40 22.5V17.5C40 17.1548 39.7202 16.875 39.375 16.875H34.375C34.0298 16.875 33.75 17.1548 33.75 17.5V19.375H30C29.6548 19.375 29.375 19.6548 29.375 20C29.375 20.3452 29.6548 20.625 30 20.625ZM6.25 19.375V17.5C6.25 17.1548 5.97018 16.875 5.625 16.875H0.625C0.279822 16.875 0 17.1548 0 17.5V22.5C0 22.8452 0.279822 23.125 0.625 23.125H5.625C5.97018 23.125 6.25 22.8452 6.25 22.5V20.625H10C10.3452 20.625 10.625 20.3452 10.625 20C10.625 19.6548 10.3452 19.375 10 19.375H6.25ZM12.9419 27.9419C13.0544 27.8253 13.1173 27.6697 13.1173 27.5077C13.1173 27.1625 12.8375 26.8827 12.4923 26.8827C12.3303 26.8827 12.1746 26.9456 12.0581 27.0581L7.86625 30.6667H0.625C0.279822 31.25 0 31.5298 0 31.875V39.375C0 39.7202 0.279822 40 0.625 40H8.125C8.47018 40 8.75 39.7202 9.33333 39.375V32.1338L12.9419 27.9419ZM20 30.625C19.6548 30.625 19.375 30.9048 19.375 31.25V33.75H17.5C17.1548 33.75 16.875 34.0298 16.875 34.375V39.375C16.875 39.7202 17.1548 40 17.5 40H22.5C22.8452 40 23.125 39.7202 23.125 39.375V34.375C23.125 34.0298 22.8452 33.75 22.5 33.75H20.625V31.25C20.625 30.9048 20.3452 30.625 20 30.625ZM30.6667 7.86625L27.0581 12.0581C26.9456 12.1746 26.8827 12.3303 26.8827 12.4923C26.8827 12.8375 27.1625 13.1173 27.5077 13.1173C27.6697 13.1173 27.8253 13.0544 27.9419 12.9419L32.1338 9.33333H39.375C39.7202 8.75 40 8.47018 40 8.125V0.625C40 0.279822 39.7202 0 39.375 0H31.875C31.5298 0 31.25 0.279822 30.6667 0.625V7.86625ZM13.3333 16.7131L19.3333 20.3587V27.6619L13.3333 24.0163V16.7131ZM20.6667 27.6619V20.3587L26.6667 16.7131V24.0163L20.6667 27.6619ZM20 19.2763L13.74 15.625L20 11.9738L26.26 15.625L20 19.2763ZM38.75 1.25V7.5H32.5V1.25H38.75ZM5 21.875H1.25V18.125H5V21.875ZM35 21.875V18.125H38.75V21.875H35ZM38.75 38.75H32.5V32.5H38.75V38.75ZM1.25 7.5V1.25H7.5V7.5H1.25ZM21.875 5H18.125V1.25H21.875V5ZM18.125 35H21.875V38.75H18.125V35ZM1.25 38.75V32.5H7.5V38.75H1.25Z" fill="white"/>
</g>
<defs>
<clipPath id="clip0_125_842">
<rect width="40" height="40" fill="white"/>
</clipPath>
</defs>
</svg>
