<svg width="40" height="40" viewBox="0 0 40 40" fill="none" xmlns="http://www.w3.org/2000/svg">
<g clip-path="url(#clip0_125_828)">
<path d="M34.9993 33.2812H36.6659C38.4993 33.3333 39.9993 31.8333 39.9993 30V3.33333C39.9993 1.5 38.4993 0 36.6659 0H3.3326C1.49927 0 -0.000732422 1.5 -0.000732422 3.33333V30C-0.000732422 31.8333 1.49927 33.3333 3.3326 33.3333H14.9993V31.3333H3.3326C2.3326 31.6667 1.66593 31 1.99927 30V3.33333C1.66593 2.33333 2.3326 1.66667 3.3326 2H36.6659C37.6659 1.66667 38.3326 2.33333 37.9993 3.33333V30C38.3326 31 37.6659 31.6667 36.6659 31.6406H34.9993V33.2812ZM31.3326 40V25.8333C33.6659 24 34.9993 21.3333 34.9993 18.3333C34.9993 12.8333 30.4993 8.33333 24.9993 8.33333C19.4993 8.33333 14.9993 12.8333 14.9993 18.3333C14.9993 21.3333 16.3326 24 18.6659 25.8333V40L24.9993 36.6667L31.3326 40ZM16.6659 18.3333C16.6659 13.6667 20.3326 10 24.9993 10C29.6659 10 33.3326 13.6667 33.3326 18.3333C33.3326 23 29.6659 26.6667 24.9993 26.6667C20.3326 26.6667 16.6659 23 16.6659 18.3333ZM11.718 6.66667H16.6399V8.33333H11.718V6.66667ZM8.28052 6.66667V8.33333H4.99927V6.66667H8.28052ZM13.2805 13.3333H4.99927V12H13.2805V13.3333ZM4.99927 18.3333V16.6667H11.6399V18.3333H4.99927ZM19.9993 27C21.4993 27.8333 23.1659 28.3333 24.9993 28.3333C26.8326 28.3333 28.4993 27.8333 29.9993 27V37.3333L24.9993 34.8333L19.9993 37.3333V33.3333V27ZM24.9993 13.3333C22.1659 13.3333 19.9993 15.5 19.9993 18.3333C19.9993 21.1667 22.1659 23.3333 24.9993 23.3333C27.8326 23.3333 29.9993 21.1667 29.9993 18.3333C29.9993 15.5 27.8326 13.3333 24.9993 13.3333ZM24.9993 21.6667C23.1659 21.6667 21.6659 20.1667 21.6659 18.3333C21.6659 16.5 23.1659 15 24.9993 15C26.8326 15 28.3326 16.5 28.3326 18.3333C28.3326 20.1667 26.8326 21.6667 24.9993 21.6667Z" fill="white"/>
</g>
<defs>
<clipPath id="clip0_125_828">
<rect width="40" height="40" fill="white" transform="translate(-0.000732422)"/>
</clipPath>
</defs>
</svg>
