<svg width="40" height="47" viewBox="0 0 40 47" fill="none" xmlns="http://www.w3.org/2000/svg">
<path d="M37.8857 31.3654C40.1871 25.1264 40.0571 18.2604 39.9524 12.7435L39.951 12.707C39.9305 12.2558 39.9169 11.7785 39.9087 11.2475C39.8703 8.65779 37.8115 6.51567 35.2211 6.3709C29.8204 6.06954 25.6425 4.30869 22.0727 0.829632L22.0423 0.800607C20.8779 -0.266869 19.1215 -0.266869 17.9568 0.800607L17.9263 0.829632C14.3566 4.30869 10.1786 6.06954 4.77793 6.37126C2.18796 6.51567 0.128738 8.65779 0.0903923 11.2478C0.082508 11.7753 0.0685314 12.2526 0.048104 12.707L0.0459538 12.7919C-0.0590499 18.2984 -0.189498 25.1515 2.10338 31.3718C3.36415 34.7925 5.27357 37.7659 7.77825 40.2101C10.6309 42.9937 14.3673 45.2035 18.8836 46.778C19.0305 46.8293 19.1832 46.8708 19.3387 46.902C19.558 46.9457 19.7788 46.9676 19.9995 46.9676C20.2203 46.9676 20.4414 46.9457 20.6604 46.902C20.8159 46.8708 20.9697 46.8289 21.1173 46.7773C25.6282 45.1999 29.3606 42.989 32.2108 40.2058C34.7144 37.7609 36.6238 34.7868 37.8857 31.3654ZM37.1969 12.8137C37.3022 18.3701 37.4191 24.666 35.2996 30.4119C32.8813 36.9679 27.9447 41.4704 20.2078 44.1758C20.1802 44.1851 20.1508 44.1934 20.1203 44.1995C20.0404 44.2152 19.959 44.2152 19.878 44.1991C19.8479 44.193 19.8186 44.1851 19.7913 44.1758C12.0461 41.4754 7.10629 36.9755 4.68977 30.419C2.57644 24.6853 2.69613 18.3944 2.80186 12.8446L2.80257 12.8137C2.82407 12.3368 2.83841 11.8373 2.84629 11.2883C2.8635 10.1384 3.7795 9.18705 4.93168 9.1229C7.9879 8.95234 10.6728 8.3618 13.1399 7.31762C15.6037 6.27487 17.792 4.80498 19.829 2.82412C19.9325 2.73668 20.0669 2.73632 20.1701 2.82412C22.2075 4.80498 24.3957 6.27487 26.8592 7.31762C29.3262 8.3618 32.0112 8.95234 35.0678 9.1229C36.2199 9.18705 37.1359 10.1384 37.1528 11.2887C37.161 11.8405 37.1754 12.34 37.1969 12.8137Z" fill="white"/>
<path d="M32.1187 23.4386C32.1187 16.972 26.8575 11.7108 20.3909 11.7108C13.924 11.7108 8.66309 16.972 8.66309 23.4386C8.66309 29.9055 13.924 35.1668 20.3909 35.1668C26.8575 35.1668 32.1187 29.9055 32.1187 23.4386ZM29.3571 23.4386C29.3571 28.3828 25.3348 32.4051 20.3909 32.4051C15.4467 32.4051 11.4244 28.3828 11.4244 23.4386C11.4244 18.4943 15.4467 14.4721 20.3909 14.4721C25.3348 14.4721 29.3571 18.4943 29.3571 23.4386Z" fill="white"/>
<g clip-path="url(#clip0_125_834)">
<path d="M25.414 19.2347C24.8747 18.6876 24.0005 18.6876 23.4612 19.2347L18.0139 24.7575L16.5354 23.2585C15.9962 22.7118 15.1219 22.7118 14.5826 23.2585C14.0437 23.8052 14.0437 24.6916 14.5826 25.238L17.0377 27.7271C17.3074 28.0005 17.6606 28.137 18.0139 28.137C18.3672 28.137 18.7205 28.0005 18.9901 27.7271L25.414 21.2142C25.9529 20.6675 25.9529 19.7811 25.414 19.2347Z" fill="white"/>
</g>
<defs>
<clipPath id="clip0_125_834">
<rect width="11.7648" height="9.41187" fill="white" transform="translate(14.1167 18.7321)"/>
</clipPath>
</defs>
</svg>
