<svg width="277" height="103" viewBox="0 0 277 103" fill="none" xmlns="http://www.w3.org/2000/svg">
<g clip-path="url(#clip0_125_726)">
<path d="M10.9825 20.771C7.73325 18.3024 4.46496 15.8338 1.10166 13.3073C2.10875 11.938 3.07783 10.5687 4.10393 9.16084C6.19411 10.7423 8.22729 12.2659 10.2605 13.7895C21.6805 22.4296 33.0625 31.1083 44.5395 39.6906C52.9573 45.9971 58.1828 54.2708 60.0639 64.7045C60.1779 65.3602 60.368 65.6109 61.071 65.6109C63.9783 65.5724 66.9045 65.5916 69.8118 65.6109C70.4199 65.6109 70.7049 65.4374 70.8569 64.8202C71.4079 62.5445 71.997 60.288 72.6241 58.0315C72.7761 57.453 72.6431 57.1637 72.244 56.8165C63.2752 49.1214 54.3254 41.407 45.3566 33.7119C33.9556 23.9146 22.5926 14.1366 11.2106 4.35863C11.0775 4.24292 10.9445 4.10792 10.7545 3.93434C11.8376 2.62289 12.8827 1.35002 14.0038 0C15.0109 0.848583 15.961 1.67788 16.9111 2.48789C19.2103 4.45506 21.5285 6.40295 23.7897 8.42798C24.3407 8.91013 24.7208 8.9487 25.3478 8.58226C31.3334 5.11079 37.7939 3.0279 44.6346 2.3336C55.3135 1.27288 65.3844 3.31719 74.6382 8.89084C87.7684 16.7981 95.8631 28.4275 98.6184 43.6635C103.312 69.6803 87.2744 94.8099 61.9451 101.425C34.5066 108.58 6.23212 90.5284 0.968645 62.3902C-1.8246 47.4435 1.38668 33.8469 10.3935 21.6582C10.5455 21.446 10.6975 21.2532 10.8495 21.041C10.8875 20.9832 10.9065 20.9253 10.9825 20.771ZM28.7111 12.6323C29.7752 13.558 30.7633 14.3873 31.7514 15.2359C47.1048 28.4468 62.4581 41.6577 77.8495 54.8493C78.3816 55.3122 78.5336 55.6979 78.3436 56.3729C77.1275 60.828 75.9304 65.2831 74.7902 69.7574C74.6002 70.5289 74.3152 70.7603 73.5361 70.7603C69.5458 70.7217 65.5554 70.7603 61.5651 70.7217C60.824 70.7217 60.577 70.9339 60.577 71.7053C60.577 72.9203 60.501 74.1546 60.368 75.3504C59.5889 82.7947 56.8336 89.4098 52.2352 95.2535C51.6082 96.0442 50.9621 96.7964 50.2781 97.645C63.0282 98.0114 81.4218 90.702 90.2196 71.5317C98.4284 53.6343 94.362 32.0533 79.1606 18.476C63.9403 4.91793 43.1714 4.47435 28.7111 12.6323ZM25.8799 32.9019C28.3311 36.0648 30.5733 39.3048 32.2074 42.9692C34.3736 47.8293 35.5137 52.8629 34.5447 58.2244C34.4876 58.5715 34.7537 59.1694 35.0387 59.4008C37.3189 61.1173 39.6181 62.8337 41.9743 64.4538C45.6416 66.961 49.651 67.8095 54.0024 66.8838C54.8195 66.7102 55.2755 66.4788 55.0855 65.4566C53.4703 57.0094 49.461 50.0086 42.6964 44.8013C33.8226 37.9548 24.8538 31.2626 15.904 24.5125C15.657 24.3196 15.3909 24.1653 15.1249 23.9725C14.8209 24.3582 14.5359 24.6668 14.3078 25.0139C13.6998 25.8625 13.0537 26.7111 12.4837 27.5982C7.08719 36.0262 4.61697 45.2449 5.20602 55.2929C5.54805 61.0402 6.91618 66.4981 9.29139 71.7053C9.51941 72.226 9.78543 72.5153 10.4125 72.4767C18.2222 71.8789 24.1127 68.1567 28.0841 61.3102C28.4261 60.7316 28.3881 60.3844 27.9131 59.8444C26.2409 57.8772 24.4928 55.9486 23.0866 53.7886C20.7494 50.1821 19.5333 46.2092 20.4834 41.812C21.2625 38.1863 23.4857 35.5441 25.8799 32.9019ZM32.3785 64.0488C27.8561 71.686 21.2625 76.1218 12.6547 77.414C12.6737 77.5875 12.6547 77.6647 12.6737 77.7032C12.8067 77.9154 12.9397 78.1468 13.0727 78.359C15.1439 81.3676 17.5381 84.1062 20.2744 86.5362C26.6019 92.1485 33.8986 95.6971 42.1643 97.1435C42.6394 97.2207 43.3044 97.0471 43.6845 96.7192C50.164 91.2034 53.9834 84.1448 55.2185 75.6782C55.4085 74.4246 55.4275 73.171 55.5225 71.9174C53.8124 72.091 52.3112 72.3417 50.8101 72.361C46.4397 72.4189 42.4684 71.0303 38.858 68.581C36.6918 67.1152 34.5827 65.6109 32.3785 64.0488ZM29.8322 54.1936C29.6422 49.5843 28.1411 45.6692 25.8799 41.8892C24.2457 45.1871 26.1649 50.4521 29.8322 54.1936Z" fill="white"/>
</g>
<path d="M147.553 78.1281C146.97 78.1281 146.5 77.9288 146.141 77.5301C145.782 77.1758 145.491 76.8657 145.267 76.5999L142.511 72.8791C140.09 73.9422 137.289 74.4737 134.107 74.4737C130.252 74.4737 126.958 73.8314 124.224 72.5469C121.535 71.218 119.428 69.2026 117.904 66.5005C116.425 63.7542 115.618 60.3213 115.484 56.2018C115.439 54.2528 115.417 52.3924 115.417 50.6206C115.417 48.8044 115.439 46.9219 115.484 44.9729C115.618 40.8977 116.47 37.5091 118.039 34.8071C119.607 32.0607 121.759 30.0231 124.493 28.6943C127.272 27.3211 130.476 26.6345 134.107 26.6345C137.782 26.6345 140.987 27.3211 143.721 28.6943C146.5 30.0231 148.673 32.0607 150.242 34.8071C151.811 37.5091 152.64 40.8977 152.73 44.9729C152.819 46.9219 152.864 48.8044 152.864 50.6206C152.864 52.3924 152.819 54.2528 152.73 56.2018C152.505 62.3146 150.892 66.8549 147.889 69.8227L152.326 76.0684C152.371 76.1127 152.416 76.1791 152.461 76.2677C152.505 76.4006 152.528 76.5778 152.528 76.7992C152.573 77.1536 152.461 77.4637 152.192 77.7295C151.923 77.9952 151.587 78.1281 151.183 78.1281H147.553ZM134.107 68.826C137.513 68.826 140.314 67.8072 142.511 65.7696C144.707 63.7321 145.894 60.432 146.074 55.8696C146.163 53.8763 146.208 52.1045 146.208 50.5541C146.208 48.9595 146.163 47.1877 146.074 45.2387C145.984 42.1823 145.401 39.7017 144.326 37.797C143.295 35.8923 141.905 34.497 140.158 33.6111C138.41 32.7252 136.393 32.2822 134.107 32.2822C131.911 32.2822 129.916 32.7252 128.123 33.6111C126.375 34.497 124.986 35.8923 123.955 37.797C122.924 39.7017 122.341 42.1823 122.207 45.2387C122.162 47.1877 122.14 48.9595 122.14 50.5541C122.14 52.1045 122.162 53.8763 122.207 55.8696C122.386 60.432 123.574 63.7321 125.77 65.7696C127.966 67.8072 130.745 68.826 134.107 68.826Z" fill="white"/>
<path d="M164.277 73.8093C163.784 73.8093 163.403 73.6764 163.134 73.4106C162.865 73.1006 162.731 72.7241 162.731 72.2811V28.8936C162.731 28.4063 162.865 28.0298 163.134 27.7641C163.403 27.454 163.784 27.299 164.277 27.299H179.538C184.155 27.299 187.875 27.9855 190.698 29.3587C193.522 30.7319 195.584 32.7695 196.884 35.4715C198.183 38.1292 198.856 41.4071 198.901 45.3051C198.945 47.2984 198.968 49.0481 198.968 50.5541C198.968 52.0602 198.945 53.7877 198.901 55.7367C198.811 59.8119 198.116 63.2005 196.816 65.9025C195.561 68.5603 193.544 70.5536 190.766 71.8824C188.032 73.167 184.401 73.8093 179.874 73.8093H164.277ZM169.319 68.1616H179.538C182.631 68.1616 185.096 67.7408 186.934 66.8992C188.771 66.0576 190.093 64.7066 190.9 62.8461C191.752 60.9857 192.2 58.5273 192.245 55.4709C192.334 54.1421 192.379 52.9904 192.379 52.0159C192.379 50.9971 192.379 50.0004 192.379 49.0259C192.379 48.0071 192.334 46.8554 192.245 45.5709C192.155 41.2742 191.124 38.1071 189.152 36.0695C187.18 33.9876 183.863 32.9466 179.202 32.9466H169.319V68.1616Z" fill="white"/>
<path d="M222.529 74.4737C219.122 74.4737 216.276 73.8314 213.991 72.5469C211.705 71.2623 209.957 69.4905 208.747 67.2314C207.536 64.928 206.864 62.3146 206.73 59.3911C206.685 58.6381 206.662 57.6857 206.662 56.534C206.662 55.338 206.685 54.3857 206.73 53.677C206.864 50.7092 207.536 48.0957 208.747 45.8366C210.002 43.5776 211.772 41.8057 214.058 40.5212C216.344 39.2366 219.167 38.5943 222.529 38.5943C225.89 38.5943 228.714 39.2366 231 40.5212C233.286 41.8057 235.034 43.5776 236.244 45.8366C237.499 48.0957 238.193 50.7092 238.328 53.677C238.373 54.3857 238.395 55.338 238.395 56.534C238.395 57.6857 238.373 58.6381 238.328 59.3911C238.193 62.3146 237.521 64.928 236.311 67.2314C235.101 69.4905 233.353 71.2623 231.067 72.5469C228.781 73.8314 225.935 74.4737 222.529 74.4737ZM222.529 69.3576C225.308 69.3576 227.526 68.4938 229.185 66.7663C230.843 64.9945 231.739 62.4253 231.874 59.0589C231.919 58.3944 231.941 57.5528 231.941 56.534C231.941 55.5152 231.919 54.6736 231.874 54.0092C231.739 50.6427 230.843 48.0957 229.185 46.3682C227.526 44.5964 225.308 43.7105 222.529 43.7105C219.75 43.7105 217.509 44.5964 215.806 46.3682C214.147 48.0957 213.273 50.6427 213.184 54.0092C213.139 54.6736 213.117 55.5152 213.117 56.534C213.117 57.5528 213.139 58.3944 213.184 59.0589C213.273 62.4253 214.147 64.9945 215.806 66.7663C217.509 68.4938 219.75 69.3576 222.529 69.3576Z" fill="white"/>
<path d="M261.134 74.4737C257.727 74.4737 254.881 73.8314 252.595 72.5469C250.31 71.2623 248.562 69.4905 247.352 67.2314C246.141 64.928 245.469 62.3146 245.335 59.3911C245.29 58.6381 245.267 57.6857 245.267 56.534C245.267 55.338 245.29 54.3857 245.335 53.677C245.469 50.7092 246.141 48.0957 247.352 45.8366C248.606 43.5776 250.377 41.8057 252.663 40.5212C254.949 39.2366 257.772 38.5943 261.134 38.5943C264.495 38.5943 267.319 39.2366 269.605 40.5212C271.891 41.8057 273.639 43.5776 274.849 45.8366C276.104 48.0957 276.798 50.7092 276.933 53.677C276.978 54.3857 277 55.338 277 56.534C277 57.6857 276.978 58.6381 276.933 59.3911C276.798 62.3146 276.126 64.928 274.916 67.2314C273.706 69.4905 271.958 71.2623 269.672 72.5469C267.386 73.8314 264.54 74.4737 261.134 74.4737ZM261.134 69.3576C263.913 69.3576 266.131 68.4938 267.79 66.7663C269.448 64.9945 270.344 62.4253 270.479 59.0589C270.524 58.3944 270.546 57.5528 270.546 56.534C270.546 55.5152 270.524 54.6736 270.479 54.0092C270.344 50.6427 269.448 48.0957 267.79 46.3682C266.131 44.5964 263.913 43.7105 261.134 43.7105C258.355 43.7105 256.114 44.5964 254.411 46.3682C252.752 48.0957 251.878 50.6427 251.789 54.0092C251.744 54.6736 251.721 55.5152 251.721 56.534C251.721 57.5528 251.744 58.3944 251.789 59.0589C251.878 62.4253 252.752 64.9945 254.411 66.7663C256.114 68.4938 258.355 69.3576 261.134 69.3576Z" fill="white"/>
<defs>
<clipPath id="clip0_125_726">
<rect width="99.4359" height="102.987" fill="white"/>
</clipPath>
</defs>
</svg>
