<svg width="175" height="20" viewBox="0 0 175 20" fill="none" xmlns="http://www.w3.org/2000/svg">
<path d="M20.7953 5.34778H23.7534V7.49233C24.1231 6.82678 24.5996 6.32554 25.1831 5.98868C25.9308 5.52849 26.8182 5.2984 27.8453 5.2984C28.1247 5.2984 28.3794 5.31489 28.6095 5.34778V8.47833C28.3547 8.39621 28.0384 8.35508 27.6604 8.35508C27.0359 8.35508 26.4813 8.47016 25.9965 8.70018C25.4049 8.97133 24.953 9.37397 24.6408 9.9081C24.3285 10.4422 24.1724 11.0913 24.1724 11.8555V18.659H20.7953V5.34778Z" fill="#0D4CD3"/>
<path d="M35.4158 19.0534C33.8546 19.0534 32.6878 18.6549 31.9154 17.8578C31.1513 17.0608 30.6747 16.2186 30.4857 15.3312C30.3049 14.4438 30.2145 13.6057 30.2145 12.8168V5.34778H33.6163V11.6336C33.6163 12.3074 33.6656 12.9401 33.7642 13.5317C33.8628 14.1233 34.1216 14.6656 34.5407 15.1586C34.968 15.6516 35.613 15.8981 36.4757 15.8981C37.2481 15.8981 37.9137 15.6352 38.4724 15.1093C39.0312 14.5752 39.3106 13.5728 39.3106 12.102V5.34778H42.6876V18.659H39.7296V17.2909C39.2284 17.8496 38.6162 18.2851 37.8931 18.5973C37.1701 18.9014 36.3442 19.0534 35.4158 19.0534Z" fill="#0D4CD3"/>
<path d="M50.8405 19.0287C49.1643 19.0287 47.8085 18.6507 46.7732 17.8948C45.7461 17.1389 45.1216 16.0624 44.8998 14.6656L48.3262 14.148C48.4659 14.7806 48.774 15.2736 49.2505 15.627C49.7354 15.9721 50.3475 16.1446 51.087 16.1446C51.6868 16.1446 52.1511 16.0296 52.4798 15.7995C52.8167 15.5613 52.9851 15.2326 52.9851 14.8135C52.9851 14.5341 52.9153 14.3205 52.7756 14.1726C52.6441 14.0165 52.3648 13.8645 51.9375 13.7166C51.5184 13.5687 50.7994 13.3591 49.7806 13.0879C48.6795 12.8086 47.8085 12.4963 47.1676 12.1512C46.5267 11.8061 46.0625 11.3953 45.7748 10.9187C45.4873 10.4421 45.3435 9.85879 45.3435 9.16851C45.3435 8.32225 45.5612 7.58267 45.9967 6.95001C46.4322 6.31728 47.0485 5.83252 47.8455 5.49566C48.6425 5.15049 49.5751 4.97794 50.6433 4.97794C51.6786 4.97794 52.5989 5.1382 53.4042 5.45865C54.2176 5.7791 54.8709 6.23928 55.3639 6.83905C55.8651 7.43073 56.1732 8.12505 56.2883 8.92201L52.8619 9.53834C52.8043 9.04526 52.5907 8.65498 52.221 8.36743C51.8512 8.07979 51.35 7.91136 50.7173 7.86206L50.4585 7.84978C49.9161 7.84978 49.4806 7.95242 49.1519 8.15786C48.8315 8.3633 48.6713 8.6427 48.6713 8.99596C48.6713 9.2343 48.7534 9.4315 48.9178 9.58764C49.0821 9.73554 49.4026 9.8916 49.8792 10.056C50.3557 10.2121 51.1363 10.4257 52.221 10.6969C53.2398 10.9598 54.0533 11.268 54.6613 11.6213C55.2694 11.9664 55.7131 12.3813 55.9924 12.8661C56.2718 13.3509 56.4116 13.9425 56.4116 14.641C56.4116 15.5448 56.1896 16.3295 55.7459 16.9951C55.3022 17.6524 54.6613 18.1577 53.8232 18.5111C52.9851 18.8562 51.9909 19.0287 50.8405 19.0287Z" fill="#0D4CD3"/>
<path d="M63.8283 19.0287C62.1521 19.0287 60.7963 18.6507 59.761 17.8948C58.7338 17.1389 58.1094 16.0624 57.8876 14.6656L61.3139 14.148C61.4537 14.7806 61.7617 15.2736 62.2383 15.627C62.7232 15.9721 63.3353 16.1446 64.0748 16.1446C64.6746 16.1446 65.1389 16.0296 65.4676 15.7995C65.8044 15.5613 65.9729 15.2326 65.9729 14.8135C65.9729 14.5341 65.903 14.3205 65.7634 14.1726C65.6319 14.0165 65.3526 13.8645 64.9253 13.7166C64.5062 13.5687 63.7872 13.3591 62.7683 13.0879C61.6673 12.8086 60.7963 12.4963 60.1554 12.1512C59.5145 11.8061 59.0502 11.3953 58.7626 10.9187C58.4751 10.4421 58.3313 9.85879 58.3313 9.16851C58.3313 8.32225 58.549 7.58267 58.9845 6.95001C59.42 6.31728 60.0362 5.83252 60.8333 5.49566C61.6303 5.15049 62.5629 4.97794 63.6311 4.97794C64.6664 4.97794 65.5867 5.1382 66.3919 5.45865C67.2054 5.7791 67.8587 6.23928 68.3517 6.83905C68.8531 7.43073 69.1606 8.12505 69.2759 8.92201L65.8496 9.53834C65.7921 9.04526 65.5784 8.65498 65.2087 8.36743C64.8389 8.07979 64.3377 7.91136 63.705 7.86206L63.4462 7.84978C62.9039 7.84978 62.4684 7.95242 62.1397 8.15786C61.8193 8.3633 61.659 8.6427 61.659 8.99596C61.659 9.2343 61.7412 9.4315 61.9055 9.58764C62.0699 9.73554 62.3904 9.8916 62.8669 10.056C63.3435 10.2121 64.1241 10.4257 65.2087 10.6969C66.2278 10.9598 67.0413 11.268 67.6488 11.6213C68.2571 11.9664 68.7012 12.3813 68.9805 12.8661C69.2598 13.3509 69.3995 13.9425 69.3995 14.641C69.3995 15.5448 69.1774 16.3295 68.734 16.9951C68.2899 17.6524 67.6488 18.1577 66.8109 18.5111C65.9729 18.8562 64.9787 19.0287 63.8283 19.0287Z" fill="#0D4CD3"/>
<path d="M77.605 19.0287C76.2817 19.0287 75.111 18.7329 74.0922 18.1413C73.0734 17.5415 72.2805 16.7116 71.7134 15.6516C71.1548 14.5834 70.8755 13.3673 70.8755 12.0033C70.8755 10.6311 71.1586 9.41501 71.7257 8.35506C72.3011 7.28687 73.0978 6.45701 74.1166 5.86541C75.1438 5.27374 76.3069 4.97794 77.605 4.97794C78.9276 4.97794 80.099 5.27786 81.1178 5.8777C82.1443 6.4693 82.9418 7.29923 83.5088 8.36743C84.0758 9.43562 84.359 10.6476 84.359 12.0033C84.359 13.3673 84.0713 14.5834 83.4966 15.6516C82.9296 16.7116 82.1321 17.5415 81.1049 18.1413C80.086 18.7329 78.9192 19.0287 77.605 19.0287ZM74.4249 12.0033C74.4249 13.2194 74.6959 14.1726 75.2385 14.8628C75.7887 15.553 76.5778 15.8981 77.605 15.8981C78.6483 15.8981 79.4412 15.5448 79.9838 14.8382C80.534 14.1315 80.8095 13.1865 80.8095 12.0033C80.8095 10.7955 80.534 9.84643 79.9838 9.15623C79.4328 8.45778 78.6399 8.10856 77.605 8.10856C76.545 8.10856 75.7475 8.45778 75.214 9.15623C74.6882 9.84643 74.4249 10.7955 74.4249 12.0033Z" fill="#0D4CD3"/>
<path d="M85.5907 5.34777H87.6856C87.6856 4.78899 87.694 4.34117 87.7108 4.00431C87.7352 3.65921 87.813 3.2812 87.9443 2.87036C88.0763 2.45953 88.2854 2.09387 88.5731 1.77342C89.0249 1.27219 89.5263 0.94352 90.0765 0.787401C90.6359 0.623063 91.2434 0.540894 91.9012 0.540894H92.4683H94.1197V3.25245H92.5911C92.0814 3.25245 91.6952 3.37981 91.4327 3.63456C91.1694 3.88923 91.0381 4.2138 91.0381 4.6082V5.34777H94.1197V7.93602H91.0381V18.659H87.6856V7.93602H85.5907V5.34777Z" fill="#0D4CD3"/>
<path d="M103.579 18.659C102.724 18.8151 101.928 18.8932 101.188 18.8932C100.185 18.8932 99.3145 18.7453 98.575 18.4494C97.8355 18.1454 97.2845 17.6648 96.9235 17.0074C96.7014 16.5966 96.5534 16.1775 96.4794 15.7502C96.4053 15.3229 96.3687 14.8177 96.3687 14.2342L96.3809 13.014V7.93603H94.1128V5.34778H96.3809V1.65018H99.7335V5.34778H103.579V7.93603H99.7335V12.8168V13.5194C99.7335 13.9467 99.7495 14.2918 99.7823 14.5547C99.8159 14.8177 99.8891 15.0354 100.004 15.2079C100.342 15.742 101.007 16.0091 102.002 16.0091C102.379 16.0091 102.905 15.9638 103.579 15.8735V18.659Z" fill="#0D4CD3"/>
<path d="M7.1719 18.0557C10.7546 18.0557 13.6589 15.1514 13.6589 11.5687C13.6589 7.98607 10.7546 5.08176 7.1719 5.08176C3.58925 5.08176 0.684937 7.98607 0.684937 11.5687C0.684937 15.1514 3.58925 18.0557 7.1719 18.0557Z" fill="#0D4CD3"/>
<path d="M128.774 3.76376H127.957V7.23613H128.774V3.76376Z" fill="#0B1F33"/>
<path d="M128.774 7.23605H127.957V10.7083H128.774V7.23605Z" fill="#0B1F33"/>
<path d="M128.774 10.7082H127.957V14.1805H128.774V10.7082Z" fill="#0B1F33"/>
<path d="M128.774 14.1806H127.957V17.6528H128.774V14.1806Z" fill="#0B1F33"/>
<path d="M119.837 10.2689C119.834 10.2656 119.76 10.1814 119.633 10.1814C119.566 10.1814 119.496 10.205 119.428 10.2487C119.415 10.2554 119.408 10.2706 119.411 10.2858C119.411 10.2891 119.461 10.6663 119.423 10.828C119.394 10.9492 119.3 11.0924 119.131 11.0924C119.093 11.0924 119.057 11.0857 119.017 11.0738H119.015L119.144 10.9778C119.154 10.9711 119.16 10.9594 119.16 10.9458C119.16 10.9324 119.154 10.9223 119.144 10.9139L118.889 10.7203C118.97 10.6529 119.02 10.6057 119.026 10.599C119.034 10.5923 119.038 10.5821 119.038 10.572C119.038 10.5619 119.035 10.5518 119.028 10.5434L118.982 10.4929C118.976 10.4861 118.967 10.4811 118.957 10.4811C118.95 10.4811 118.942 10.4844 118.936 10.4896C118.933 10.4912 118.865 10.5485 118.763 10.6259L118.661 10.5485L119.061 10.2453L119.092 10.3329C119.097 10.3464 119.109 10.3565 119.123 10.3565C119.123 10.3565 119.123 10.3565 119.125 10.3565C119.137 10.3565 119.149 10.3481 119.155 10.3363L119.347 9.94893C119.353 9.9355 119.351 9.92039 119.345 9.90856C119.339 9.89849 119.328 9.89169 119.315 9.89169C119.314 9.89169 119.312 9.89169 119.311 9.89169L118.916 9.9574C118.903 9.95908 118.892 9.96915 118.887 9.98434C118.884 9.99785 118.887 10.013 118.898 10.023L118.962 10.0854L118.506 10.4306L118.051 10.0854L118.115 10.023C118.124 10.013 118.129 9.99785 118.124 9.98434C118.121 9.96915 118.11 9.95908 118.097 9.9574L117.701 9.89169C117.7 9.89169 117.698 9.89169 117.697 9.89169C117.685 9.89169 117.674 9.89681 117.668 9.90856C117.66 9.92039 117.66 9.9355 117.666 9.94893L117.856 10.3363C117.862 10.3481 117.875 10.3565 117.887 10.3565C117.888 10.3565 117.888 10.3565 117.888 10.3565C117.902 10.3565 117.913 10.3464 117.919 10.3329L117.951 10.2453L118.352 10.5485L118.25 10.6259C118.147 10.5485 118.08 10.4912 118.078 10.4896C118.072 10.4844 118.065 10.4811 118.057 10.4811C118.048 10.4811 118.039 10.4844 118.033 10.4929L117.986 10.5434C117.98 10.5501 117.975 10.5602 117.975 10.572C117.975 10.5821 117.98 10.5923 117.988 10.599C117.996 10.6057 118.046 10.6529 118.127 10.7203L117.872 10.9139C117.862 10.9206 117.856 10.9324 117.856 10.9458C117.856 10.9594 117.862 10.9694 117.872 10.9778L118 11.0738C118 11.0738 118 11.0738 117.999 11.0738C117.959 11.0857 117.922 11.0924 117.885 11.0924C117.715 11.0924 117.62 10.9492 117.591 10.828C117.553 10.6663 117.604 10.2891 117.604 10.2858C117.605 10.2706 117.599 10.2554 117.587 10.2487C117.516 10.205 117.447 10.1814 117.382 10.1814C117.253 10.1814 117.179 10.2639 117.176 10.2689C117.17 10.274 117.167 10.2841 117.167 10.2908C117.166 10.3144 117.126 10.8583 117.356 11.1345C117.44 11.2355 117.552 11.2877 117.685 11.2877C117.707 11.2877 117.733 11.2877 117.758 11.2826C117.888 11.2658 118.016 11.2271 118.139 11.18L118.352 11.3383L117.882 11.6885C117.873 11.6969 117.867 11.707 117.867 11.7205C117.867 11.7323 117.872 11.744 117.882 11.7524L118.354 12.1112L117.951 12.4177L117.92 12.3317C117.916 12.3183 117.904 12.3098 117.89 12.3082C117.89 12.3082 117.89 12.3082 117.888 12.3082C117.876 12.3082 117.864 12.3166 117.858 12.3284L117.668 12.7157C117.662 12.7275 117.663 12.7443 117.669 12.7544C117.675 12.7645 117.686 12.7712 117.698 12.7712C117.7 12.7712 117.701 12.7712 117.703 12.7712L118.098 12.7073C118.112 12.7056 118.123 12.6938 118.126 12.6803C118.13 12.6652 118.126 12.6501 118.116 12.6399L118.051 12.5759L118.507 12.229L118.964 12.5759L118.898 12.6399C118.887 12.6501 118.884 12.6652 118.887 12.6803C118.89 12.6938 118.903 12.7039 118.916 12.7073L119.311 12.7712C119.312 12.7712 119.314 12.7712 119.315 12.7712C119.327 12.7712 119.338 12.7662 119.345 12.7544C119.353 12.7426 119.353 12.7275 119.347 12.7157L119.155 12.3284C119.149 12.3166 119.138 12.3082 119.125 12.3082H119.123C119.108 12.3082 119.097 12.3183 119.092 12.3317L119.061 12.4177L118.659 12.1112L119.131 11.7524C119.14 11.7457 119.146 11.734 119.146 11.7205C119.146 11.707 119.14 11.6969 119.131 11.6885L118.661 11.3383L118.873 11.18C118.996 11.2287 119.123 11.2658 119.253 11.2826C119.279 11.286 119.303 11.2877 119.327 11.2877C119.461 11.2877 119.572 11.2355 119.656 11.1345C119.885 10.8583 119.846 10.3144 119.844 10.2908C119.844 10.2841 119.841 10.2756 119.837 10.2689ZM118.504 10.6697L118.605 10.7454C118.573 10.7674 118.539 10.7909 118.504 10.8145C118.469 10.7909 118.435 10.7691 118.403 10.7454L118.504 10.6697ZM118.136 10.9475L118.276 10.8414C118.303 10.86 118.331 10.8802 118.361 10.9021C118.306 10.9341 118.252 10.9644 118.196 10.993L118.136 10.9475ZM118.864 11.7205L118.504 11.9933L118.145 11.7205L118.504 11.4527L118.864 11.7205ZM118.504 11.222L118.331 11.0924C118.392 11.0604 118.449 11.0284 118.504 10.9947C118.559 11.0284 118.617 11.0604 118.679 11.0924L118.504 11.222ZM118.813 10.993C118.758 10.9661 118.702 10.9358 118.646 10.9021C118.677 10.8819 118.705 10.8617 118.732 10.8414L118.873 10.9475L118.813 10.993Z" fill="#0B1F33"/>
<path d="M119.958 10.5885C119.972 10.5584 119.978 10.5013 119.978 10.5013L119.958 10.4946V10.5885Z" fill="#0B1F33"/>
<path d="M124.483 9.23979C124.335 9.14218 124.092 9.10845 123.844 9.13371C124.232 8.98551 124.496 8.66895 124.51 8.38604C124.308 8.32202 124.098 8.35575 123.916 8.40116C124.104 8.24623 124.414 7.96341 124.375 7.54741C124.193 7.49865 123.859 7.63838 123.72 7.70745C124.167 7.43126 124.328 6.77792 124.09 6.40741C123.95 6.49837 123.311 7.21567 123.207 7.29824C123.538 6.88232 123.692 6.58423 123.781 6.30468C123.887 5.99988 123.894 5.46781 123.552 5.2893C123.389 5.69683 122.823 6.74251 122.507 7.17697C122.472 7.14332 122.444 7.09783 122.4 7.08944C122.324 7.3538 122.101 7.70569 121.897 7.87412C121.886 7.85222 121.867 7.79162 121.831 7.72591C121.615 8.08124 121.055 8.56791 120.874 8.86767C120.733 9.08991 120.733 9.29031 120.929 9.49743C121.009 9.58504 121.159 9.73821 121.029 9.9538C120.852 10.2384 120.494 10.272 120.301 10.1037C120.301 10.0532 120.3 10.0043 120.298 9.95884C120.526 9.86115 120.581 9.51934 120.412 9.30718C120.375 9.38464 120.314 9.44187 120.24 9.47049C120.22 9.38128 120.204 9.33915 120.202 9.33412L120.193 9.31389H120.173C120.172 9.31389 120.096 9.30886 119.985 9.29535C120.111 9.24986 120.193 9.12028 120.175 8.94681C119.978 9.13203 119.782 8.95521 119.738 8.90637C119.615 8.74809 119.58 8.56958 119.629 8.29683C119.67 8.05934 119.894 7.68218 120.041 7.56092C120.062 7.58282 120.096 7.62823 120.169 7.62151C120.21 7.6064 120.278 7.56763 120.33 7.54573C120.479 7.49697 120.623 7.53398 120.715 7.59961C120.884 7.71248 120.868 7.83711 120.864 7.928C121.119 7.76972 121.031 7.50536 120.695 7.40768C120.925 7.40768 121.113 7.63838 121.162 7.667C121.29 7.76972 121.471 7.74614 121.577 7.69058C121.781 7.5845 121.822 7.32014 121.767 7.26626C121.747 7.36051 121.681 7.44469 121.564 7.45988C121.389 7.48178 121.22 7.39928 121.087 7.33357C120.974 7.28137 120.791 7.24268 120.668 7.25108C120.897 7.11134 121.254 7.12645 121.381 7.34205C121.457 7.27466 121.506 7.21399 121.527 7.07425C121.593 6.69702 121.325 6.50341 121.039 6.50341C121.046 6.41252 120.987 6.36696 120.911 6.39733C120.911 6.35856 120.902 6.32827 120.882 6.31316C120.888 6.31316 120.897 6.30972 120.903 6.30972C121.191 6.28782 121.464 6.19021 121.611 6.0201C121.868 5.71698 121.457 5.33303 121.605 5.03502C121.746 5.10233 121.85 5.18994 122.044 5.22024C122.064 5.26572 122.082 5.35661 122.089 5.40546C122.152 5.74224 121.85 5.79787 121.928 6.15648C121.962 6.31987 122.073 6.37543 122.11 6.56912C122.11 6.56912 122.124 6.70382 122.017 6.82165C122.265 6.82836 122.395 6.59766 122.318 6.38382C122.285 6.29629 122.199 6.21372 122.199 6.11107C122.326 6.29629 122.44 6.2895 122.636 6.22051C122.724 6.19021 122.732 6.32659 122.677 6.43602C122.811 6.34849 122.846 6.20532 122.846 6.14137C122.846 5.98981 122.738 5.91906 122.636 5.94943C122.577 5.95615 122.461 6.04368 122.453 5.91906C122.429 5.70355 122.738 5.71194 122.675 5.36508C122.642 5.19162 122.466 5.09561 122.192 5.0586C122.164 5.0283 122.095 4.95588 122.058 4.89521C121.908 4.62078 121.752 4.54835 121.658 4.60391C121.548 4.66451 121.492 4.71671 121.401 4.77066C121.329 4.81271 121.252 4.83461 121.205 4.89521C121.086 5.0586 121.199 5.31121 121.261 5.46613C121.302 5.55702 121.401 5.76414 121.357 5.91906C121.308 6.10436 121.031 6.22051 120.862 6.25928C120.852 6.25928 120.844 6.26263 120.833 6.26263V6.19021C120.882 6.09589 120.923 5.98309 120.957 5.88037C121.071 5.54695 120.902 5.41225 120.652 5.34822C120.62 5.32632 120.587 5.31792 120.545 5.33303H120.537L120.531 5.38867L120.497 5.37684L120.505 5.30953H120.49C120.519 5.28762 120.531 5.24886 120.531 5.21184C120.531 5.1714 120.517 5.13942 120.504 5.11752H120.537L120.523 5.10233C120.517 5.08722 120.504 5.07203 120.482 5.04845C120.476 5.04173 120.468 5.02662 120.468 5.01815C120.475 5.02487 120.482 5.03334 120.496 5.04006C120.51 5.05524 120.529 5.07035 120.537 5.08554L120.557 5.10065V4.79592L120.537 4.81439C120.531 4.82118 120.51 4.83629 120.496 4.85316C120.482 4.86827 120.476 4.86827 120.468 4.87506C120.468 4.86827 120.475 4.85987 120.482 4.84476C120.504 4.82958 120.517 4.80767 120.523 4.79592L120.537 4.77234H120.256L120.269 4.79592C120.283 4.80599 120.3 4.82958 120.313 4.84476C120.32 4.85987 120.327 4.86827 120.333 4.87506C120.326 4.86827 120.314 4.86827 120.306 4.85316C120.281 4.83797 120.269 4.82286 120.256 4.81439L120.245 4.79592V5.10576L120.259 5.09058C120.272 5.07547 120.286 5.06028 120.309 5.04509C120.317 5.03838 120.329 5.02998 120.336 5.02319C120.329 5.02998 120.323 5.04509 120.317 5.05356C120.303 5.07715 120.284 5.09058 120.272 5.10744L120.259 5.12255H120.303C120.278 5.14446 120.272 5.17643 120.272 5.21688C120.272 5.25389 120.286 5.29266 120.309 5.31456H120.303L120.309 5.38187L120.272 5.3937L120.265 5.33815H120.259C120.217 5.32296 120.184 5.33135 120.156 5.35326C119.901 5.41728 119.733 5.55366 119.846 5.88541C119.882 5.98813 119.924 6.10092 119.974 6.19525V6.24409C119.72 6.15312 119.262 5.84664 119.139 5.66142C119.125 5.64295 119.115 5.62776 119.108 5.61601H119.107L119.112 5.41561C119.2 5.25221 119.28 5.05181 119.341 4.86827C119.502 4.3884 119.265 4.18799 118.888 4.10549C118.85 4.0752 118.802 4.06001 118.739 4.08359L118.725 4.15937L118.646 4.15266L118.652 4.05497C118.641 4.05833 118.628 4.05833 118.614 4.05833C118.667 4.02803 118.706 3.95561 118.706 3.88151C118.706 3.82763 118.681 3.76367 118.64 3.7333H118.706C118.667 3.69629 118.606 3.61714 118.594 3.56323C118.641 3.57841 118.713 3.64912 118.747 3.68789V3.29548C118.713 3.32581 118.641 3.40159 118.594 3.40831C118.606 3.36453 118.667 3.28876 118.706 3.25003H118.349C118.377 3.28876 118.445 3.36453 118.451 3.40831C118.41 3.40159 118.341 3.32581 118.303 3.29548V3.68789C118.341 3.64912 118.409 3.57841 118.451 3.56323C118.445 3.61545 118.377 3.69461 118.349 3.7333H118.41C118.369 3.76367 118.349 3.82763 118.349 3.88151C118.349 3.95561 118.383 4.02971 118.438 4.05833C118.424 4.05833 118.41 4.05833 118.389 4.05161L118.396 4.1493L118.316 4.15601L118.309 4.08023C118.248 4.05833 118.2 4.07352 118.159 4.10206C117.785 4.18631 117.548 4.38504 117.709 4.86491C117.764 5.04845 117.843 5.25053 117.939 5.41225V5.61937C117.932 5.62608 117.925 5.6412 117.911 5.65638C117.791 5.8416 117.33 6.14809 117.076 6.23905V6.19021C117.127 6.09589 117.169 5.98309 117.203 5.88037C117.317 5.54695 117.148 5.41225 116.894 5.34822C116.865 5.32632 116.833 5.31792 116.792 5.33303H116.785L116.777 5.38867L116.743 5.37684L116.75 5.30953H116.743C116.763 5.28762 116.777 5.24886 116.777 5.21184C116.777 5.1714 116.771 5.13942 116.75 5.11752H116.792L116.777 5.10233C116.763 5.08722 116.75 5.07203 116.736 5.04845C116.73 5.04173 116.719 5.02662 116.711 5.01815C116.719 5.02487 116.736 5.03334 116.742 5.04006C116.762 5.05524 116.776 5.07035 116.792 5.08554L116.805 5.10065V4.79592L116.792 4.81439C116.777 4.82118 116.763 4.83629 116.742 4.85316C116.736 4.86827 116.719 4.86827 116.711 4.87506C116.719 4.86827 116.728 4.85987 116.736 4.84476C116.75 4.82958 116.763 4.80767 116.777 4.79592L116.792 4.77234H116.509L116.523 4.79592C116.529 4.80599 116.547 4.82958 116.562 4.84476C116.576 4.85987 116.582 4.86827 116.582 4.87506C116.577 4.86659 116.569 4.86659 116.556 4.85148C116.54 4.83629 116.518 4.82118 116.512 4.81271L116.491 4.79417V5.10408L116.512 5.0889C116.518 5.07379 116.54 5.0586 116.556 5.04341C116.571 5.0367 116.577 5.0283 116.583 5.02151C116.583 5.0283 116.577 5.04341 116.563 5.05181C116.549 5.07547 116.531 5.0889 116.524 5.10576L116.511 5.12087H116.547C116.531 5.14278 116.515 5.17475 116.515 5.2152C116.515 5.25221 116.529 5.29098 116.562 5.31289H116.547L116.555 5.3802L116.517 5.39202L116.511 5.33647H116.503C116.462 5.32128 116.428 5.32967 116.401 5.35158C116.147 5.41561 115.978 5.55198 116.091 5.88373C116.127 5.98645 116.168 6.09924 116.218 6.19357V6.26599C116.208 6.26599 116.199 6.26263 116.191 6.26263C116.022 6.22387 115.741 6.10771 115.693 5.92242C115.648 5.7675 115.748 5.56038 115.79 5.46949C115.855 5.31456 115.966 5.06196 115.849 4.89864C115.797 4.83797 115.722 4.81607 115.648 4.77402C115.56 4.72182 115.505 4.66794 115.391 4.60727C115.301 4.55171 115.148 4.62246 114.992 4.89864C114.958 4.95924 114.886 5.02998 114.857 5.06196C114.586 5.09897 114.411 5.1933 114.373 5.36844C114.31 5.7153 114.62 5.70858 114.6 5.92242C114.592 6.04704 114.472 5.95951 114.417 5.95279C114.31 5.92242 114.204 5.99316 114.204 6.14473C114.204 6.20868 114.243 6.35185 114.373 6.43938C114.317 6.32995 114.324 6.19357 114.417 6.22387C114.613 6.29293 114.722 6.29965 114.851 6.11443C114.851 6.21547 114.768 6.29965 114.731 6.38718C114.655 6.60277 114.782 6.83172 115.033 6.82501C114.92 6.70717 114.942 6.57248 114.942 6.57248C114.978 6.37879 115.088 6.32323 115.125 6.15991C115.201 5.80123 114.898 5.7456 114.964 5.40881C114.97 5.35997 114.984 5.26908 115.006 5.2236C115.201 5.1933 115.309 5.10744 115.445 5.03838C115.586 5.33647 115.18 5.72041 115.438 6.02346C115.587 6.19357 115.861 6.29118 116.147 6.31316C116.153 6.31316 116.162 6.31651 116.17 6.31819C116.15 6.3333 116.139 6.36192 116.139 6.40069C116.063 6.37039 116.005 6.41588 116.016 6.50677C115.721 6.50677 115.461 6.70046 115.525 7.07761C115.545 7.21735 115.593 7.27802 115.673 7.3454C115.797 7.12981 116.154 7.1147 116.387 7.25444C116.26 7.24604 116.077 7.28473 115.966 7.33693C115.834 7.40096 115.667 7.48514 115.493 7.46323C115.371 7.44812 115.31 7.36555 115.286 7.26962C115.231 7.3235 115.272 7.58618 115.477 7.69394C115.58 7.7495 115.762 7.77308 115.889 7.67036C115.938 7.64006 116.127 7.41104 116.358 7.41104C116.024 7.50872 115.931 7.77308 116.192 7.93136C116.182 7.84046 116.17 7.71584 116.337 7.60305C116.43 7.53902 116.577 7.50032 116.722 7.54909C116.772 7.57099 116.842 7.60976 116.883 7.62487C116.955 7.63166 116.988 7.58618 117.011 7.56428C117.159 7.68554 117.375 8.0627 117.422 8.30019C117.475 8.57294 117.436 8.74977 117.312 8.9098C117.271 8.95857 117.072 9.13539 116.877 8.95017C116.859 9.12364 116.94 9.25154 117.067 9.29878C116.953 9.31221 116.877 9.31725 116.875 9.31725H116.856L116.848 9.33747C116.846 9.34083 116.83 9.38464 116.808 9.47217C116.737 9.44187 116.676 9.38632 116.64 9.30886C116.471 9.52101 116.523 9.86115 116.75 9.95884C116.748 10.006 116.746 10.0548 116.746 10.107C116.552 10.272 116.2 10.2367 116.025 9.9538C115.891 9.73821 116.045 9.58329 116.122 9.49743C116.318 9.29031 116.318 9.08991 116.176 8.86767C115.993 8.56958 115.434 8.08124 115.219 7.72591C115.183 7.78994 115.163 7.85054 115.155 7.87412C114.953 7.70569 114.726 7.3538 114.652 7.08944C114.61 7.09616 114.58 7.14332 114.544 7.17697C114.232 6.74251 113.663 5.69683 113.502 5.2893C113.161 5.46781 113.167 5.99988 113.272 6.30468C113.363 6.58423 113.518 6.88232 113.844 7.29824C113.742 7.21399 113.103 6.49837 112.962 6.40741C112.726 6.77792 112.887 7.43126 113.333 7.70745C113.196 7.63838 112.86 7.49865 112.677 7.54741C112.644 7.96341 112.948 8.24623 113.137 8.40116C112.953 8.35575 112.743 8.32202 112.542 8.38604C112.555 8.66895 112.823 8.98726 113.199 9.13371C112.959 9.10677 112.716 9.14218 112.567 9.23979C112.595 9.53452 112.898 9.78873 113.261 9.8494C113.018 9.8797 112.802 9.99761 112.688 10.1592C112.822 10.3512 113.018 10.4994 113.316 10.4927C113.247 10.5196 113.167 10.5718 113.1 10.6426C113.092 10.6358 113.079 10.6274 113.067 10.6274C113.051 10.6341 113.047 10.6577 113.051 10.6728C113.051 10.6728 113.051 10.6728 113.051 10.6846C113.022 10.7065 113.007 10.7334 113.004 10.7604C112.976 10.8042 112.947 10.8547 112.931 10.9001C112.939 10.9036 112.945 10.9119 112.951 10.9153C112.95 10.9389 112.956 10.9675 112.973 10.9961C112.959 11.0113 112.953 11.0332 112.945 11.0568L112.771 10.9793C112.762 11.1545 112.797 11.2976 112.877 11.3869C112.939 11.466 113.012 11.4542 112.99 11.4811L113.18 11.6091C113.214 11.6882 113.283 11.6882 113.33 11.6663C113.33 11.6663 113.33 11.673 113.33 11.6815C113.33 11.764 113.382 11.8314 113.45 11.8583C113.436 11.9273 113.463 11.9711 113.549 12.0031L114.262 13.906C114.235 13.9969 114.262 14.0761 114.326 14.1064C114.31 14.1283 114.298 14.1519 114.298 14.1973C114.326 14.1754 114.367 14.167 114.387 14.231C114.401 14.2765 114.326 14.4229 114.439 14.5223C114.423 14.6099 114.466 14.6991 114.548 14.7379C114.548 14.7833 114.586 14.9298 114.592 14.982C114.541 15.0612 114.423 15.1824 114.439 15.3154C114.452 15.4098 114.486 15.4401 114.555 15.4636C114.527 15.6337 114.613 15.7095 114.743 15.7179C114.743 15.8426 114.849 15.8863 114.918 15.8947C114.984 15.9486 115.012 15.9705 115.087 16.0126C115.018 16.1019 115.067 16.2197 115.192 16.2585C115.206 16.3107 115.242 16.3561 115.312 16.3746C115.353 16.4504 115.428 16.4504 115.473 16.4285C115.5 16.4134 115.549 16.3258 115.506 16.25C115.534 16.213 115.52 16.1406 115.5 16.0951C115.541 16.0126 115.506 15.9099 115.45 15.8796C115.458 15.8341 115.435 15.7617 115.422 15.7179C115.522 15.6489 115.645 15.563 115.69 15.5327C115.934 15.3407 116.209 15.1689 116.521 15.1471C116.602 15.1386 116.748 15.1319 116.831 15.1386C116.958 15.1538 117.133 15.1959 117.236 15.1083C117.268 15.0864 117.288 15.0477 117.281 15.0106C117.268 14.9231 117.181 14.8473 117.154 14.7699C117.146 14.7463 117.134 14.7109 117.12 14.679C117.209 14.6958 117.292 14.6823 117.343 14.6553C117.397 14.6334 117.531 14.524 117.525 14.3607C117.417 14.4162 117.16 14.492 117.133 14.2057C117.105 13.9531 117.307 13.7376 117.624 13.8319C117.84 13.8925 118.156 14.3977 117.868 14.6183C117.727 14.7244 117.511 14.8254 117.539 15.1016C117.63 14.977 117.755 14.9164 117.916 14.9315C117.68 15.1235 117.497 15.1471 117.249 15.2935C117.033 15.4334 116.872 15.664 116.702 15.6708C116.573 15.6775 116.5 15.5074 116.627 15.3761C116.5 15.3457 116.331 15.4553 116.284 15.6017C116.223 15.8021 116.27 15.9453 116.384 16.0261C116.231 16.117 116.116 16.2938 116.171 16.5464C116.223 16.7535 116.411 16.7535 116.34 17.0179C116.445 16.9876 116.514 16.9085 116.544 16.7957C116.558 16.7165 116.573 16.634 116.608 16.5953C116.592 16.7535 116.675 16.9876 116.872 17.0937C117.006 17.1661 117.215 17.1947 117.376 17.0112C117.442 17.2183 117.664 17.3968 117.896 17.3883C118.001 17.3883 118.105 17.3379 118.184 17.2873C118.238 17.4405 118.38 17.5971 118.519 17.6712C118.663 17.5971 118.804 17.4405 118.862 17.2873C118.938 17.3396 119.044 17.3883 119.147 17.3883C119.369 17.3951 119.603 17.2183 119.666 17.0112C119.827 17.1947 120.036 17.1661 120.17 17.0937C120.366 16.9876 120.449 16.7535 120.435 16.5953C120.471 16.634 120.485 16.7165 120.5 16.7957C120.528 16.9085 120.596 16.9876 120.703 17.0179C120.631 16.7535 120.824 16.7535 120.871 16.5464C120.926 16.2938 120.813 16.1153 120.662 16.0261C120.771 15.947 120.824 15.8038 120.758 15.6017C120.71 15.4553 120.542 15.3457 120.415 15.3761C120.542 15.5074 120.473 15.6775 120.339 15.6708C120.172 15.664 120.011 15.4316 119.793 15.2935C119.547 15.1454 119.364 15.1235 119.127 14.9315C119.288 14.9164 119.415 14.977 119.504 15.1016C119.531 14.8254 119.315 14.7244 119.174 14.6183C118.889 14.3977 119.202 13.8925 119.422 13.8319C119.735 13.7376 119.942 13.9531 119.91 14.2057C119.875 14.4937 119.624 14.4179 119.511 14.3607C119.511 14.5223 119.644 14.6317 119.7 14.6553C119.764 14.689 119.883 14.7075 119.989 14.657C119.986 14.6857 119.982 14.716 119.982 14.7244C119.96 14.9703 119.84 14.9922 119.882 15.0931C119.94 15.1689 120.324 15.1538 120.429 15.1774C120.611 15.2043 120.765 15.2784 120.94 15.3171C121.136 15.3626 121.345 15.3626 121.521 15.4417C121.634 15.4956 121.761 15.5967 121.871 15.6573C122.04 15.6876 122.012 15.7634 122.119 15.7634C122.216 15.7634 122.253 15.6724 122.377 15.6354C122.463 15.6135 122.559 15.6505 122.645 15.6202C122.708 15.6051 122.735 15.5344 122.793 15.4956C122.862 15.4501 122.959 15.4501 123.023 15.3845C123.057 15.3508 123.065 15.2868 123.059 15.2413L123.06 15.2514C123.191 15.1504 123.291 15.0022 123.346 14.8321C123.38 14.8254 123.407 14.7917 123.407 14.753C123.407 14.7463 123.407 14.7379 123.407 14.7379C123.441 14.7075 123.462 14.6621 123.462 14.6166C123.462 14.5593 123.442 14.5139 123.407 14.4768C123.407 14.4768 123.407 14.4684 123.407 14.4617C123.407 14.4314 123.394 14.4095 123.38 14.3893C123.325 14.0609 123.098 13.7965 122.805 13.714C122.805 13.7056 122.805 13.7056 122.805 13.6988H122.799C122.799 13.6837 122.793 13.6753 122.782 13.6753C122.741 13.6298 122.692 13.5591 122.686 13.5136C122.733 13.5288 122.813 13.6113 122.855 13.645V13.2105C122.813 13.2442 122.735 13.3267 122.686 13.3418C122.692 13.288 122.767 13.1937 122.805 13.1566H122.405C122.441 13.1937 122.518 13.288 122.524 13.3418C122.476 13.3267 122.397 13.2442 122.356 13.2105V13.645C122.398 13.6113 122.476 13.5288 122.524 13.5136C122.518 13.5675 122.441 13.6618 122.405 13.6988L122.418 13.7056C122.119 13.7813 121.879 14.0542 121.824 14.3893C121.804 14.4078 121.79 14.4314 121.79 14.4617C121.79 14.4684 121.79 14.4768 121.79 14.4768C121.755 14.5139 121.735 14.5593 121.735 14.6166C121.735 14.6604 121.755 14.7075 121.79 14.7379C121.79 14.7379 121.79 14.7446 121.79 14.753C121.79 14.8018 121.818 14.8254 121.851 14.8321C121.865 14.8743 121.882 14.9164 121.9 14.9534C121.9 14.95 121.9 14.95 121.905 14.9449C121.88 15.0696 121.743 15.1454 121.712 15.1454C121.467 15.1841 121.196 15.0696 120.949 14.9686C120.841 14.9231 120.692 14.8709 120.62 14.753C120.575 14.6671 120.555 14.6133 120.579 14.5375C120.607 14.5745 120.651 14.6166 120.713 14.6536C120.719 14.6166 120.719 14.5745 120.733 14.5442C120.796 14.6469 120.896 14.6991 121.015 14.6924C120.943 14.625 120.91 14.4465 120.943 14.2916C121.043 14.4768 121.421 14.5139 121.49 14.1822C121.349 14.2546 121.259 14.1754 121.232 14.0912C121.191 13.9582 121.329 13.6366 121.205 13.389C121.106 13.2038 120.992 13.091 120.729 13.0455C120.749 13.0101 120.756 12.9798 120.762 12.9276C120.519 13.0253 120.309 12.9495 120.21 12.7357C120.259 12.7576 120.329 12.766 120.398 12.766C120.182 12.5723 120.196 12.025 120.35 11.7421C120.371 11.727 120.378 11.7118 120.398 11.7051C120.446 11.8112 120.587 11.8112 120.658 11.897C120.686 11.8667 120.7 11.8583 120.727 11.8331C120.727 11.8331 120.733 12.2827 120.761 12.4679C120.788 12.675 120.971 12.6532 121.064 12.7441C121.174 12.611 121.374 12.6178 121.343 12.3887C121.316 12.1597 121.274 11.951 121.268 11.7961C121.329 11.9358 121.45 12.4612 121.498 12.611C121.576 12.8333 121.772 12.766 121.882 12.8535C121.954 12.6986 122.136 12.6532 122.064 12.4191C122.044 12.3584 121.746 11.668 121.702 11.535C121.807 11.7051 122.096 12.313 122.186 12.4831C122.285 12.6599 122.467 12.574 122.598 12.6178C122.622 12.4898 122.798 12.3416 122.669 12.1193C122.508 11.8246 122.13 11.3111 122.11 11.2387C122.186 11.3178 122.772 12.1193 122.818 12.1631C122.954 12.2945 123.153 12.1934 123.272 12.1934C123.272 12.0469 123.377 11.8802 123.223 11.7101C123.083 11.5619 122.759 11.3094 122.691 11.2235C122.907 11.3869 123.161 11.6462 123.313 11.6882C123.581 11.764 123.677 11.6462 123.777 11.6007C123.694 11.333 123.804 11.2083 123.237 10.9474C123.728 11.1393 123.945 11.045 124.119 10.8934C124.051 10.7015 123.876 10.5398 123.734 10.486C124.034 10.4927 124.233 10.3461 124.363 10.1525C124.253 9.99081 124.034 9.87298 123.783 9.84269C124.153 9.78705 124.449 9.53452 124.483 9.23979ZM113.114 11.2184C113.108 11.2184 113.108 11.2251 113.1 11.2336C113.059 11.2268 113.059 11.1729 113.067 11.1275C113.086 11.1275 113.1 11.1207 113.114 11.1056L113.12 11.114L113.1 11.1291C113.108 11.1578 113.108 11.1881 113.114 11.2184ZM113.249 11.535L113.181 11.4913C113.209 11.4558 113.235 11.4558 113.263 11.4761C113.263 11.498 113.263 11.5198 113.249 11.535ZM113.451 11.0635C113.442 11.0635 113.433 11.0635 113.423 11.0635C113.421 11.0618 113.42 11.0585 113.418 11.0568C113.431 11.0534 113.445 11.0534 113.456 11.05C113.456 11.0534 113.453 11.0585 113.451 11.0635ZM117.346 16.5801C117.177 16.5801 117.058 16.4639 117.143 16.3005C117.188 16.3746 117.277 16.4084 117.353 16.4168C117.346 16.4942 117.346 16.516 117.346 16.5801ZM119.907 16.3005C119.994 16.4639 119.874 16.5801 119.706 16.5801C119.706 16.516 119.706 16.4942 119.692 16.4168C119.77 16.41 119.862 16.378 119.907 16.3005ZM117.339 6.30468C117.724 6.21372 118.116 5.9763 118.292 5.77597C118.438 5.78604 118.626 5.78772 118.768 5.77765C118.941 5.97966 119.328 6.21204 119.714 6.30301C119.49 6.30301 119.099 6.2811 119.05 6.22051C119.064 6.37543 119.363 6.55057 119.559 6.59766C119.396 6.61956 119.247 6.59766 119.119 6.53371C119.188 6.64322 119.268 6.72572 119.398 6.77449C119.262 6.95978 118.98 7.07929 118.701 7.05067C118.77 7.14164 118.897 7.19888 119.007 7.18201C118.756 7.62151 118.57 8.07284 118.526 8.59484H118.525V8.59652C118.483 8.07285 118.298 7.62151 118.048 7.18201C118.162 7.1972 118.286 7.14164 118.351 7.05067C118.068 7.08097 117.797 6.95978 117.656 6.77449C117.788 6.72572 117.866 6.64322 117.935 6.53371C117.811 6.59766 117.656 6.61956 117.496 6.59766C117.692 6.54889 117.994 6.37543 118.007 6.22051C117.954 6.28278 117.563 6.30468 117.339 6.30468ZM113.815 10.9507C113.78 10.9675 113.737 10.9877 113.705 11.0029C113.705 10.9996 113.705 10.9961 113.705 10.9928C113.739 10.9776 113.782 10.9641 113.815 10.9507ZM116.287 12.9293C116.295 12.9815 116.301 13.0118 116.321 13.0472C116.056 13.0927 115.944 13.2055 115.848 13.3907C115.713 13.6399 115.854 13.9615 115.815 14.0929C115.788 14.1754 115.701 14.2563 115.56 14.1838C115.628 14.5173 116.005 14.4785 116.105 14.2933C116.139 14.4483 116.105 14.6267 116.036 14.6941C116.154 14.7008 116.254 14.6486 116.315 14.5459C116.328 14.5762 116.328 14.6183 116.335 14.6553C116.401 14.6183 116.442 14.5762 116.469 14.5392C116.48 14.5762 116.492 14.6638 116.477 14.7345C116.427 14.7715 116.37 14.8069 116.281 14.8574C116.141 14.9332 115.883 15.0426 115.736 15.0645C115.615 15.0864 115.405 15.0106 115.351 14.8254C115.303 14.6486 115.169 14.5914 115.064 14.7008C115.036 14.679 114.961 14.6621 114.929 14.7177C114.929 14.7177 114.895 14.6334 114.854 14.593C114.881 14.5021 114.86 14.3926 114.785 14.3556C114.779 14.1771 114.679 14.1771 114.644 14.1165C114.624 14.0794 114.624 14.0323 114.671 14.0256C114.652 13.9919 114.609 13.9852 114.603 13.9852C114.617 13.9094 114.595 13.8151 114.503 13.7847L113.689 11.9358C113.74 11.8752 113.713 11.7876 113.655 11.7573C113.655 11.7573 113.655 11.7505 113.655 11.7421C113.66 11.727 113.661 11.7169 113.663 11.7051C113.684 11.7017 113.711 11.6949 113.734 11.6882C113.895 11.6462 114.146 11.3869 114.364 11.2235C114.287 11.3111 113.972 11.5637 113.83 11.7101C113.699 11.8533 113.754 11.9964 113.776 12.1261L113.806 12.1985C113.926 12.2069 114.105 12.286 114.238 12.1648C114.279 12.1193 114.868 11.3178 114.945 11.2403C114.915 11.3128 114.544 11.8263 114.376 12.121C114.252 12.3433 114.434 12.4898 114.456 12.6194C114.589 12.574 114.771 12.6616 114.868 12.4847C114.961 12.3146 115.246 11.7068 115.351 11.5367C115.31 11.6697 115.009 12.3601 114.987 12.4208C114.915 12.6548 115.097 12.7003 115.169 12.8552C115.28 12.7676 115.477 12.8367 115.554 12.6127C115.601 12.4628 115.722 11.9375 115.785 11.7977C115.777 11.9527 115.736 12.1615 115.709 12.3904C115.681 12.6211 115.876 12.6127 115.98 12.7457C116.079 12.6548 116.261 12.6767 116.289 12.4696C116.316 12.2843 116.322 11.8348 116.322 11.8348C116.35 11.8617 116.364 11.8684 116.395 11.8987C116.462 11.8112 116.605 11.8112 116.652 11.7068C116.673 11.7135 116.679 11.7287 116.701 11.7438C116.856 12.0268 116.868 12.574 116.652 12.7676C116.714 12.7676 116.793 12.7592 116.84 12.7373C116.745 12.9512 116.532 13.027 116.287 12.9293ZM117.81 15.5158C117.683 15.7078 117.583 15.8476 117.501 16.0867C117.352 16.0715 117.381 15.8712 117.428 15.7701C117.528 15.5697 117.932 15.3087 118.136 15.0477C118.045 15.2144 117.92 15.366 117.81 15.5158ZM118.249 15.8712C118.167 16.2247 118.108 16.7467 118.136 16.9809C117.851 16.8175 118.012 16.1877 118.122 15.9166C118.275 15.5394 118.383 15.078 118.418 14.7833C118.506 15.0073 118.309 15.632 118.249 15.8712ZM118.915 16.9809C118.943 16.7467 118.888 16.2247 118.802 15.8712C118.742 15.632 118.546 15.0073 118.634 14.7833C118.667 15.078 118.774 15.5378 118.929 15.9166C119.04 16.1877 119.2 16.8175 118.915 16.9809ZM119.623 15.7685C119.672 15.8712 119.7 16.0698 119.551 16.085C119.469 15.8459 119.369 15.7078 119.247 15.5142C119.131 15.366 119.005 15.2127 118.915 15.046C119.118 15.3087 119.524 15.568 119.623 15.7685ZM119.588 13.0657C119.215 13.8605 118.534 14.5072 118.526 14.4987C118.519 14.5089 117.837 13.8605 117.465 13.0657C117.093 12.2726 116.854 11.0248 116.842 10.4286C116.828 9.83253 116.935 9.57825 116.935 9.57825C116.935 9.57825 117.401 9.54963 117.773 9.40814C118.088 9.28863 118.432 8.98383 118.528 8.89461C118.625 8.98383 118.967 9.28695 119.285 9.40814C119.655 9.55131 120.12 9.57825 120.12 9.57825C120.12 9.57825 120.227 9.83421 120.213 10.4286C120.198 11.0248 119.959 12.2726 119.588 13.0657Z" fill="#0B1F33"/>
<path d="M132.336 11.2102C132.57 11.1546 132.826 11.116 133.103 11.0957C133.38 11.0738 133.651 11.0638 133.921 11.0638C134.205 11.0638 134.495 11.0907 134.788 11.1462C135.081 11.2018 135.349 11.3028 135.589 11.4511C135.829 11.5993 136.025 11.8029 136.18 12.064C136.333 12.3249 136.411 12.6618 136.411 13.0727C136.411 13.46 136.341 13.7901 136.201 14.0628C136.062 14.3356 135.875 14.5596 135.644 14.7313C135.413 14.9031 135.146 15.0294 134.847 15.1086C134.549 15.1877 134.24 15.2281 133.921 15.2281C133.887 15.2281 133.835 15.2264 133.766 15.223C133.696 15.2197 133.624 15.2163 133.549 15.2146C133.473 15.2113 133.4 15.2062 133.331 15.2011C133.261 15.1944 133.21 15.1894 133.177 15.1827V17.5974H132.339V11.2102H132.336ZM133.945 11.8737C133.794 11.8737 133.648 11.877 133.505 11.8821C133.364 11.8889 133.253 11.904 133.175 11.9276V14.371C133.203 14.3828 133.248 14.3912 133.312 14.3946C133.377 14.3979 133.444 14.4013 133.513 14.4081C133.584 14.4148 133.65 14.4165 133.714 14.4165C133.779 14.4165 133.828 14.4165 133.861 14.4165C134.062 14.4165 134.261 14.3996 134.457 14.3659C134.653 14.3323 134.829 14.2683 134.99 14.1706C135.149 14.0729 135.278 13.9382 135.376 13.7614C135.474 13.5862 135.523 13.3589 135.523 13.0794C135.523 12.8369 135.475 12.6382 135.381 12.4799C135.285 12.3233 135.163 12.1987 135.011 12.1078C134.861 12.0168 134.691 11.9545 134.504 11.9209C134.316 11.8906 134.129 11.8737 133.945 11.8737Z" fill="#0B1F33"/>
<path d="M136.602 15.1827C136.602 14.7836 136.649 14.4249 136.744 14.1084C136.839 13.7918 136.978 13.5223 137.163 13.3018C137.347 13.0812 137.572 12.911 137.839 12.7949C138.104 12.6787 138.407 12.6198 138.749 12.6198C139.106 12.6198 139.42 12.6838 139.688 12.8134C139.956 12.9431 140.179 13.1216 140.359 13.3523C140.537 13.583 140.669 13.8524 140.756 14.1639C140.844 14.4738 140.887 14.8139 140.887 15.1827C140.887 15.5751 140.838 15.9287 140.74 16.2419C140.642 16.5551 140.503 16.8228 140.321 17.0435C140.138 17.264 139.915 17.4341 139.65 17.5504C139.384 17.6665 139.084 17.7254 138.749 17.7254C138.38 17.7254 138.062 17.6615 137.793 17.5318C137.525 17.4022 137.303 17.2253 137.127 16.998C136.951 16.7707 136.819 16.5012 136.734 16.1914C136.644 15.8816 136.602 15.5448 136.602 15.1827ZM137.44 15.1827C137.44 15.41 137.463 15.6323 137.51 15.8513C137.557 16.0701 137.633 16.2638 137.738 16.4372C137.844 16.6107 137.978 16.7471 138.144 16.8515C138.31 16.9559 138.513 17.0081 138.757 17.0081C139.617 17.0081 140.047 16.4002 140.047 15.1844C140.047 14.9452 140.024 14.7145 139.977 14.4923C139.93 14.2718 139.856 14.0764 139.754 13.908C139.651 13.7396 139.518 13.6032 139.352 13.4971C139.187 13.3927 138.987 13.3405 138.757 13.3405C138.326 13.3405 138 13.492 137.776 13.7968C137.551 14.0983 137.44 14.5614 137.44 15.1827Z" fill="#0B1F33"/>
<path d="M145.109 17.264C144.914 17.4173 144.685 17.5335 144.422 17.6093C144.158 17.6867 143.883 17.7254 143.591 17.7254C143.223 17.7254 142.908 17.6632 142.648 17.5402C142.388 17.4173 142.178 17.2456 142.016 17.0249C141.854 16.8044 141.737 16.5366 141.664 16.2234C141.591 15.9102 141.555 15.5633 141.555 15.1827C141.555 14.366 141.735 13.7346 142.096 13.2883C142.455 12.8437 142.975 12.6198 143.65 12.6198C143.946 12.6198 144.203 12.6484 144.422 12.7074C144.639 12.7663 144.835 12.8387 145.009 12.9246L144.809 13.615C144.659 13.5291 144.497 13.4617 144.323 13.4129C144.148 13.3641 143.958 13.3388 143.752 13.3388C142.847 13.3388 142.396 13.9534 142.396 15.1827C142.396 15.4168 142.42 15.6424 142.471 15.8597C142.521 16.0786 142.601 16.2722 142.713 16.4407C142.824 16.609 142.97 16.7471 143.149 16.8515C143.33 16.9559 143.55 17.0081 143.81 17.0081C144.043 17.0081 144.249 16.9727 144.423 16.902C144.598 16.8313 144.744 16.7471 144.861 16.6494L145.109 17.264Z" fill="#0B1F33"/>
<path d="M149.015 17.264C148.818 17.4173 148.59 17.5335 148.327 17.6093C148.063 17.6867 147.788 17.7254 147.497 17.7254C147.128 17.7254 146.814 17.6632 146.553 17.5402C146.293 17.4173 146.083 17.2456 145.921 17.0249C145.759 16.8044 145.642 16.5366 145.569 16.2234C145.496 15.9102 145.46 15.5633 145.46 15.1827C145.46 14.366 145.64 13.7346 146.001 13.2883C146.36 12.8437 146.88 12.6198 147.555 12.6198C147.851 12.6198 148.108 12.6484 148.327 12.7074C148.544 12.7663 148.74 12.8387 148.914 12.9246L148.714 13.615C148.565 13.5291 148.402 13.4617 148.228 13.4129C148.053 13.3641 147.863 13.3388 147.657 13.3388C146.752 13.3388 146.301 13.9534 146.301 15.1827C146.301 15.4168 146.325 15.6424 146.375 15.8597C146.427 16.0786 146.506 16.2722 146.618 16.4407C146.728 16.609 146.875 16.7471 147.055 16.8515C147.236 16.9559 147.457 17.0081 147.717 17.0081C147.951 17.0081 148.156 16.9727 148.33 16.902C148.505 16.8313 148.65 16.7471 148.766 16.6494L149.015 17.264Z" fill="#0B1F33"/>
<path d="M152.836 14.8321L152.954 13.874H152.862L152.452 14.7766L150.39 17.5972H149.796V12.7576H150.567V15.6135L150.509 16.4622H150.601L150.987 15.6422L153.007 12.7576H153.611V17.5955H152.839V14.8321H152.836Z" fill="#0B1F33"/>
<path d="M157.791 14.8321L157.909 13.874H157.817L157.406 14.7766L155.345 17.5972H154.75V12.7576H155.521V15.6135L155.462 16.4622H155.555L155.941 15.6422L157.961 12.7576H158.564V17.5955H157.792V14.8321H157.791Z" fill="#0B1F33"/>
<path d="M137.069 5.75263L137.16 4.79952H137.115L136.774 5.67013L135.139 8.53785H134.914L133.182 5.66174L132.859 4.79952H132.815L132.94 5.74255V10.0163H132.24V3.66455H132.797L134.762 6.91286L135.059 7.62015H135.077L135.355 6.89431L137.232 3.66455H137.815V10.0146H137.069V5.75263Z" fill="#0B1F33"/>
<path d="M142.07 7.33046L142.097 6.76801H142.07L141.702 7.34892L139.682 10.0163H139.268V5.4798H139.986V8.24655L139.959 8.78198H139.994L140.345 8.21954L142.365 5.4798H142.786V10.0163H142.067V7.33046H142.07Z" fill="#0B1F33"/>
<path d="M146.915 8.01073H144.886V10.0163H144.168V5.4798H144.886V7.37594H146.915V5.4798H147.633V10.0163H146.915V8.01073Z" fill="#0B1F33"/>
<path d="M153.049 11.1681H152.563L152.429 10.0163H149.017V5.4798H149.736V9.38144H151.684V5.4798H152.402V9.38144H153.049V11.1681Z" fill="#0B1F33"/>
<path d="M156.738 7.33046L156.765 6.76801H156.738L156.37 7.34892L154.35 10.0163H153.937V5.4798H154.655V8.24655L154.627 8.78198H154.664L155.015 8.21954L157.034 5.4798H157.456V10.0163H156.738V7.33046Z" fill="#0B1F33"/>
<path d="M160.858 10.0517C160.756 10.0887 160.65 10.109 160.54 10.1158C160.429 10.1225 160.328 10.1241 160.24 10.1241C159.694 10.1241 159.276 9.93046 158.982 9.54316C158.688 9.15585 158.542 8.55807 158.542 7.74638C158.542 6.97177 158.704 6.38918 159.028 5.99516C159.351 5.60274 159.818 5.4057 160.428 5.4057C160.595 5.4057 160.739 5.41752 160.858 5.44279V3.66455H161.541V5.45126C161.649 5.43271 161.745 5.42088 161.829 5.41417C161.913 5.40737 161.993 5.4057 162.071 5.4057C162.664 5.4057 163.11 5.57916 163.408 5.92777C163.707 6.27631 163.857 6.85226 163.857 7.65549C163.857 8.03607 163.817 8.37957 163.736 8.68437C163.655 8.98918 163.537 9.2485 163.381 9.46066C163.224 9.67282 163.034 9.83621 162.811 9.95068C162.586 10.0652 162.327 10.1225 162.035 10.1225C161.981 10.1225 161.901 10.1174 161.797 10.109C161.693 10.1006 161.607 10.0837 161.541 10.0584V11.8283H160.858V10.0517ZM160.418 9.52637C160.491 9.52637 160.563 9.52293 160.634 9.5179C160.707 9.51118 160.785 9.49943 160.867 9.48088V6.04225C160.795 6.03049 160.728 6.02034 160.665 6.01531C160.602 6.00859 160.526 6.00691 160.437 6.00691C160.067 6.00691 159.777 6.14672 159.57 6.42955C159.364 6.71077 159.261 7.15027 159.261 7.74974C159.261 8.0041 159.284 8.23984 159.328 8.45703C159.373 8.67422 159.443 8.86456 159.539 9.02452C159.635 9.18447 159.757 9.3091 159.902 9.39663C160.048 9.48256 160.221 9.52637 160.418 9.52637ZM161.935 6.00523C161.863 6.00523 161.799 6.00691 161.742 6.01027C161.685 6.01363 161.615 6.02714 161.53 6.05072V9.49775C161.591 9.5095 161.658 9.5179 161.732 9.51957C161.808 9.52293 161.89 9.52461 161.979 9.52461C162.362 9.52461 162.651 9.36465 162.846 9.04306C163.041 8.72314 163.138 8.26006 163.138 7.65549C163.138 7.14188 163.05 6.73771 162.873 6.44474C162.698 6.15344 162.385 6.00523 161.935 6.00523Z" fill="#0B1F33"/>
<path d="M164.943 5.47965H165.436L165.571 6.02362H165.606C165.744 5.81139 165.921 5.64975 166.14 5.53864C166.359 5.42745 166.609 5.37021 166.89 5.37021C167.488 5.37021 167.934 5.54871 168.227 5.90572C168.519 6.26272 168.667 6.847 168.667 7.65701C168.667 8.0376 168.617 8.3811 168.518 8.6859C168.418 8.99071 168.28 9.25003 168.099 9.46219C167.92 9.67434 167.703 9.83766 167.449 9.95221C167.194 10.0667 166.911 10.1239 166.6 10.1239C166.378 10.1239 166.204 10.1105 166.075 10.0835C165.946 10.0566 165.807 10.0094 165.657 9.94213V11.8298H164.938V5.47965H164.943ZM166.756 6.00508C166.452 6.00508 166.21 6.0859 166.034 6.24586C165.857 6.40581 165.733 6.65002 165.661 6.97673V9.22645C165.769 9.31062 165.891 9.37633 166.029 9.42174C166.166 9.46722 166.349 9.48912 166.577 9.48912C166.991 9.48912 167.319 9.3342 167.561 9.02268C167.803 8.71116 167.923 8.25311 167.923 7.64854C167.923 7.40105 167.902 7.17538 167.861 6.9733C167.819 6.77121 167.752 6.59782 167.658 6.45633C167.565 6.31492 167.445 6.20373 167.3 6.12459C167.153 6.04545 166.972 6.00508 166.756 6.00508Z" fill="#0B1F33"/>
<path d="M170.517 7.21255C170.661 7.18897 170.8 7.17218 170.931 7.16203C171.063 7.15363 171.188 7.14859 171.308 7.14859C171.612 7.14859 171.869 7.18393 172.075 7.253C172.282 7.32198 172.447 7.41799 172.573 7.53926C172.698 7.66045 172.787 7.80361 172.838 7.97029C172.888 8.13704 172.914 8.31386 172.914 8.50076C172.914 9.05138 172.762 9.45051 172.461 9.69808C172.16 9.94557 171.669 10.0702 170.993 10.0702C170.611 10.0702 170.213 10.0516 169.799 10.0163V5.4798H170.517V7.21255ZM170.517 9.38144C170.738 9.41853 170.951 9.43532 171.154 9.43532C171.531 9.43532 171.795 9.36129 171.945 9.21309C172.095 9.06488 172.17 8.85441 172.17 8.58326C172.17 8.3408 172.096 8.14207 171.95 7.98379C171.802 7.82719 171.547 7.74806 171.182 7.74806C171.08 7.74806 170.969 7.75141 170.85 7.75645C170.73 7.76324 170.62 7.78003 170.517 7.81033V9.38144ZM173.623 5.4798H174.342V10.0163H173.623V5.4798Z" fill="#0B1F33"/>
</svg>
